<svg width="39" height="45" viewBox="0 0 39 45" fill="none" xmlns="http://www.w3.org/2000/svg">
  <path d="M8.60525 0H30.456C35.5361 0 38.6576 4.29245 36.0257 7.64151L25.3758 21.1792L19.5612 28.5377L15.0931 34.1509C13.9914 35.566 15.2768 37.3585 17.419 37.3585H21.581C23.7232 37.3585 25.0086 35.566 23.9069 34.1509L20.7241 30.0943L26.5387 22.7358L38.0456 37.3585C40.6774 40.7075 37.5559 45 32.4758 45H6.52423C1.4441 45 -1.67743 40.7075 0.954447 37.3585L13.7466 21.1792L19.5612 13.8208L21.8871 10.8491C22.9888 9.43396 21.7034 7.64151 19.5612 7.64151C17.419 7.64151 16.1336 9.43396 17.2354 10.8491L18.5207 12.4528L12.7061 19.8113L3.03547 7.64151C0.403589 4.24528 3.52512 0 8.60525 0Z" fill="currentColor"/>
</svg>
