<svg xmlns="http://www.w3.org/2000/svg" viewBox="0 0 24 24" width="32" height="32" fill="none" stroke="#0659FF" stroke-width="2" stroke-linecap="round" stroke-linejoin="round">
  <path d="M21 10V13C21 16.7712 21 18.6569 19.8284 19.8284C18.6569 21 16.7712 21 13 21H11C7.22876 21 5.34315 21 4.17157 19.8284C3 18.6569 3 16.7712 3 13V11C3 7.22876 3 5.34315 4.17157 4.17157C5.34315 3 7.22876 3 11 3H14"/>
  <path d="M10 3L15 20.5"/>
  <path d="M3 13L12 11"/>
  <path d="M19.5 2.9375V4.5M19.5 4.5V6.0625M19.5 4.5H18.25M19.5 4.5H20.75M22 4.5L20.9156 4.13852C20.4179 3.97263 20.0274 3.58211 19.8615 3.08443L19.5 2L19.1385 3.08443C18.9726 3.58211 18.5821 3.97263 18.0844 4.13852L17 4.5L18.0844 4.86148C18.5821 5.02737 18.9726 5.41789 19.1385 5.91557L19.5 7L19.8615 5.91557C20.0274 5.41789 20.4179 5.02737 20.9156 4.86148L22 4.5Z"/>
</svg>
